<?xml version="1.0" standalone="no"?>
<!DOCTYPE svg PUBLIC "-//W3C//DTD SVG 20010904//EN"
 "http://www.w3.org/TR/2001/REC-SVG-20010904/DTD/svg10.dtd">
<svg version="1.0" xmlns="http://www.w3.org/2000/svg"
 width="1280.000000pt" height="1280.000000pt" viewBox="0 0 1280.000000 1280.000000"
 preserveAspectRatio="xMidYMid meet">
<g transform="translate(0.000000,1280.000000) scale(0.100000,-0.100000)"
fill="#000000" stroke="none">
<path d="M0 6400 l0 -6400 6400 0 6400 0 0 6400 0 6400 -6400 0 -6400 0 0
-6400z m4148 4338 c16 -16 15 -53 -2 -68 -23 -18 -59 -8 -76 23 -14 26 -14 29
4 43 24 17 58 18 74 2z m302 -13 c118 -17 275 -49 412 -86 l78 -21 -6 -39
c-12 -71 23 -119 83 -119 l28 1 -33 27 c-58 48 -34 89 46 79 90 -11 132 -47
132 -114 0 -72 -75 -101 -108 -43 -19 33 -32 39 -32 14 0 -25 56 -74 85 -74
26 0 76 40 87 70 4 11 14 6 37 -21 17 -20 42 -39 55 -43 33 -8 76 9 103 42
l23 27 64 -33 c125 -65 154 -88 162 -127 3 -20 18 -50 31 -66 20 -23 33 -29
65 -29 37 0 40 -2 33 -22 -20 -64 -18 -87 13 -118 31 -31 72 -39 101 -21 11 7
25 1 48 -20 28 -24 42 -29 88 -29 l53 0 87 -98 c48 -55 95 -117 105 -139 18
-42 62 -83 88 -83 8 0 34 -18 58 -40 29 -27 53 -40 71 -40 39 0 91 34 99 65 7
28 16 31 33 11 19 -23 63 -34 98 -24 37 10 65 53 61 95 -3 22 2 28 29 35 65
17 78 96 28 157 l-24 28 72 70 c40 38 95 88 123 111 l52 42 47 -21 c92 -41
177 9 191 110 4 32 11 50 18 47 87 -37 141 -31 185 20 26 29 31 43 31 88 l0
54 93 40 c195 86 384 144 602 186 217 42 323 50 605 49 220 0 272 -3 304 -17
24 -10 67 -16 113 -16 88 0 269 -35 438 -84 201 -58 195 -55 217 -115 25 -66
62 -91 136 -91 28 0 52 -2 52 -5 0 -3 -9 -23 -20 -45 -24 -47 -25 -71 -5 -114
29 -61 110 -85 156 -46 l24 19 -50 -5 c-42 -5 -55 -2 -77 16 -77 60 32 186
131 152 52 -18 141 -83 157 -114 20 -38 11 -75 -21 -90 -19 -9 -31 -7 -65 11
-22 11 -43 21 -45 21 -14 0 -2 -25 24 -51 23 -23 38 -29 71 -29 51 0 77 12
115 56 l30 34 43 -31 43 -32 -20 -21 c-54 -57 -43 -134 24 -161 32 -14 48 -35
26 -35 -5 0 -23 -12 -40 -26 -24 -19 -31 -34 -31 -60 0 -35 28 -74 53 -74 6 0
4 5 -5 11 -30 17 -41 47 -28 79 15 36 48 50 121 50 74 0 104 -24 114 -93 9
-61 -1 -103 -32 -127 -32 -25 -44 -25 -77 1 -14 11 -26 16 -26 10 0 -17 43
-41 73 -41 40 0 62 14 77 50 15 36 27 38 39 8 22 -57 79 -77 136 -48 22 11 42
20 46 20 23 0 232 -325 311 -485 80 -160 101 -220 89 -243 -6 -11 -11 -39 -11
-61 l0 -40 -27 15 c-38 19 -66 18 -96 -6 -29 -23 -42 -63 -28 -88 9 -15 10
-15 11 5 1 57 41 83 90 58 32 -17 90 -107 90 -141 0 -30 -35 -71 -82 -95 -85
-43 -158 -2 -131 73 11 30 11 31 -2 14 -44 -58 13 -135 90 -120 41 7 42 4 15
-51 -24 -49 -14 -94 24 -114 27 -15 78 -11 83 6 3 7 -3 9 -16 6 -33 -9 -71 6
-83 32 -16 36 6 81 57 110 81 48 128 27 155 -71 17 -61 6 -80 -44 -76 -26 2
-36 -1 -36 -12 0 -23 50 -56 85 -56 41 0 41 0 56 -205 21 -277 -22 -658 -87
-773 l-27 -48 -58 4 c-56 4 -60 3 -94 -31 -30 -30 -35 -42 -35 -80 0 -31 8
-55 25 -81 14 -20 25 -41 25 -46 0 -6 -20 -10 -45 -10 -26 0 -59 -7 -74 -15
-28 -14 -61 -68 -61 -99 0 -35 30 -85 59 -101 31 -15 31 -16 16 -45 -19 -37
-19 -81 0 -126 14 -33 13 -39 -14 -107 -96 -242 -166 -372 -350 -650 l-129
-195 -40 5 c-67 9 -125 -39 -114 -95 3 -13 -3 -16 -50 -26 -31 -7 -58 -50 -58
-90 0 -14 13 -41 30 -59 l29 -34 -24 -23 c-23 -22 -35 -52 -49 -121 -11 -54
-201 -301 -406 -530 -426 -473 -574 -634 -702 -763 -81 -82 -148 -152 -148
-155 0 -14 -399 -410 -518 -514 -121 -106 -424 -351 -595 -480 -80 -61 -93
-67 -135 -67 -55 0 -84 -17 -101 -59 l-13 -29 -36 25 c-67 45 -138 14 -149
-66 -4 -31 -10 -41 -23 -41 -33 0 -70 -57 -70 -108 -1 -53 37 -21 -299 -255
-153 -106 -155 -107 -175 -88 -70 63 -134 51 -182 -34 -10 -19 -12 -18 -27 11
-22 42 -67 61 -107 44 -33 -14 -50 -37 -50 -67 1 -13 5 -11 16 10 28 52 84 55
109 6 29 -55 11 -140 -34 -163 -41 -21 -94 -27 -129 -15 -52 18 -55 70 -5 101
l28 17 -24 1 c-39 0 -71 -37 -71 -83 0 -31 7 -45 33 -70 24 -23 28 -31 17 -35
-8 -3 -28 -19 -45 -35 -98 -99 -386 -88 -485 17 -13 15 -48 34 -78 42 -121 36
-713 494 -741 575 -14 39 -44 66 -88 78 -21 6 -65 32 -98 59 -33 27 -114 88
-180 135 -194 141 -186 134 -175 163 28 72 -6 149 -78 174 -38 13 -47 13 -87
-2 l-45 -17 0 55 c0 30 -7 68 -15 84 -32 61 -116 78 -179 35 -34 -23 -39 -24
-60 -10 -12 8 -43 21 -69 29 -119 36 -672 504 -1087 920 l-205 206 37 35 c78
77 56 180 -49 228 -32 14 -29 23 10 30 57 9 86 26 108 59 25 41 20 100 -12
134 -33 35 -45 29 -15 -7 44 -52 32 -115 -26 -145 -69 -36 -240 4 -266 62 -15
31 -15 126 -2 176 14 49 54 95 90 103 39 9 88 -18 105 -58 13 -28 14 -29 15
-9 0 13 -13 37 -29 53 -24 24 -38 29 -76 29 -49 0 -72 -16 -121 -85 l-21 -30
-12 57 c-16 76 -52 108 -120 108 -56 0 -91 -23 -111 -70 -9 -22 -19 -30 -33
-28 -27 4 -212 259 -232 319 -15 45 -15 49 4 80 24 39 26 58 9 94 -14 31 -55
55 -94 55 -21 0 -25 3 -19 18 4 9 9 34 12 54 5 32 1 41 -26 69 -27 27 -37 31
-74 27 -36 -3 -46 0 -74 28 -39 39 -92 125 -173 277 -78 148 -122 260 -175
444 -48 167 -50 218 -11 233 78 30 82 138 6 170 -38 16 -38 21 1 44 75 44 53
157 -31 156 -23 -1 -22 -2 12 -20 44 -24 55 -52 34 -85 -20 -30 -75 -42 -117
-25 -36 16 -58 55 -66 120 -9 78 24 103 70 54 29 -31 43 -18 25 21 -17 39 -60
57 -112 50 l-44 -7 -31 94 c-17 51 -31 104 -31 117 0 20 3 22 23 16 12 -4 43
-10 68 -12 38 -4 50 -1 77 22 17 14 36 43 42 63 8 32 6 44 -15 88 -35 70 -33
76 16 59 70 -25 117 -15 156 35 15 18 17 89 3 110 -7 10 -8 0 -4 -32 6 -43 4
-50 -24 -77 -41 -41 -89 -41 -158 -1 -108 61 -146 138 -108 213 65 127 172
182 241 123 23 -20 28 -32 28 -69 0 -25 3 -40 7 -34 19 30 8 79 -26 113 -42
42 -83 45 -151 9 -26 -14 -49 -24 -51 -22 -2 2 4 26 13 53 21 67 12 115 -28
148 -40 34 -113 36 -153 5 -21 -16 -30 -19 -39 -10 -15 15 11 199 53 371 48
198 56 217 101 246 57 36 81 78 76 134 -3 25 -8 53 -12 63 -6 15 -1 17 41 17
61 0 92 16 121 59 30 45 29 89 -3 136 l-26 38 20 36 c11 20 22 53 25 73 3 21
20 59 38 85 58 86 132 187 177 240 l44 53 28 -20 c41 -30 80 -42 112 -35 38 9
88 52 88 77 0 19 0 19 -34 -1 -46 -29 -83 -27 -98 4 -16 35 5 77 73 147 51 52
61 58 98 58 127 0 194 -139 88 -179 -15 -6 -40 -8 -57 -5 -31 7 -42 -9 -14
-20 71 -27 154 28 154 101 0 28 -9 54 -30 84 l-29 44 57 5 c31 3 67 11 79 18
50 28 68 114 37 174 -16 31 -16 32 6 50 46 37 204 130 318 187 188 94 422 174
638 217 l91 18 53 -23 c37 -16 63 -21 86 -16 32 6 35 4 50 -34 23 -58 75 -86
136 -74 39 8 85 55 93 95 11 50 13 51 59 3 37 -39 48 -45 85 -45 64 0 99 23
128 86 24 53 25 54 61 49 20 -3 89 -12 152 -20z m-562 -1 c46 -32 18 -134 -37
-134 -40 0 -104 92 -85 122 18 28 89 35 122 12z m1467 -295 c0 -27 -28 -37
-50 -19 -18 15 -20 57 -2 63 20 8 52 -19 52 -44z m2104 -85 c-15 -18 -28 -18
-36 2 -8 20 17 36 34 22 10 -8 10 -14 2 -24z m-233 -125 c10 -17 -13 -36 -27
-22 -12 12 -4 33 11 33 5 0 12 -5 16 -11z m-4788 -41 c7 -7 12 -25 12 -40 0
-53 -84 -64 -114 -15 -23 37 70 87 102 55z m3487 -78 c33 -35 28 -44 -34 -56
-60 -12 -90 27 -52 65 29 29 52 26 86 -9z m4794 -46 c40 -33 39 -50 -1 -63
-40 -13 -87 -2 -104 25 -12 17 -11 23 2 42 21 30 65 28 103 -4z m-3879 -223
c8 -16 3 -28 -29 -65 -22 -25 -42 -59 -46 -76 -16 -74 -95 -54 -95 24 0 27 57
103 92 122 34 19 66 17 78 -5z m4134 -32 c29 -34 34 -70 11 -89 -36 -30 -83
30 -70 89 8 39 26 39 59 0z m-9356 -601 c16 -16 15 -33 -4 -52 -19 -20 -29
-20 -48 -1 -12 13 -13 21 -4 40 12 27 37 32 56 13z m-154 -999 c54 -43 20
-157 -66 -219 -50 -37 -71 -38 -97 -4 -16 21 -21 41 -21 89 0 67 6 77 84 129
47 31 65 32 100 5z m-79 -319 c-20 -39 -19 -49 7 -77 25 -26 9 -31 -27 -7 -14
9 -31 14 -39 11 -10 -4 -15 4 -18 24 -4 22 -1 29 12 29 9 0 27 11 40 25 32 34
44 32 25 -5z m39 -170 c59 -22 136 -115 136 -164 0 -29 -45 -69 -77 -68 -40 1
-129 46 -143 73 -18 32 -24 123 -11 147 13 24 51 29 95 12z m10081 -442 c30
-13 40 -44 27 -79 -17 -42 -37 -53 -72 -39 -52 21 -66 74 -30 110 23 23 39 25
75 8z m-105 -243 c36 -19 47 -54 29 -98 -13 -34 -37 -67 -49 -67 -4 0 -28 18
-54 41 -55 49 -61 85 -20 118 32 25 55 26 94 6z m-9739 -155 c21 -12 25 -50 7
-68 -7 -7 -24 -12 -38 -12 -14 0 -31 5 -38 12 -13 13 -16 60 -5 71 10 10 52 8
74 -3z m467 -1169 c8 -4 12 -19 10 -32 -2 -18 -9 -24 -28 -24 -19 0 -26 6 -28
24 -3 20 11 41 28 41 3 0 11 -4 18 -9z m8628 -25 c8 -20 -54 -134 -82 -153
-28 -18 -53 -14 -68 10 -15 23 1 47 47 70 24 11 42 29 51 52 15 36 42 46 52
21z m-8513 -158 c13 -20 -6 -48 -34 -48 -22 0 -35 36 -18 56 15 18 38 15 52
-8z m464 -423 c48 -33 53 -126 13 -206 -28 -53 -57 -52 -105 3 -46 54 -51 76
-30 138 24 74 73 100 122 65z m303 -471 c65 -26 83 -89 35 -120 -38 -25 -94
-5 -139 48 -20 23 -36 47 -36 53 0 37 71 46 140 19z m1572 -1411 c22 -20 23
-51 1 -75 -22 -24 -52 -23 -80 4 -28 26 -29 42 -3 68 24 24 57 26 82 3z m208
-177 c6 -8 10 -25 8 -38 -4 -30 -37 -35 -68 -10 -19 16 -21 22 -11 40 13 25
52 29 71 8z m3066 -351 c15 -23 15 -27 0 -50 -16 -24 -78 -69 -114 -83 -11 -4
-8 5 11 27 17 20 27 44 27 63 0 33 24 68 46 68 8 0 21 -11 30 -25z m-748 -557
c4 -32 -33 -64 -55 -46 -28 23 -5 81 30 76 15 -2 23 -11 25 -30z"/>
</g>
</svg>
